<?xml version="1.0" encoding="UTF-8"?>
<!DOCTYPE svg PUBLIC "-//W3C//DTD SVG 1.1//EN" "http://www.w3.org/Graphics/SVG/1.1/DTD/svg11.dtd">
<!-- Creator: CorelDRAW X6 -->
<svg xmlns="http://www.w3.org/2000/svg" xml:space="preserve" width="2.01389in" height="2.01389in" version="1.1" style="shape-rendering:geometricPrecision; text-rendering:geometricPrecision; image-rendering:optimizeQuality; fill-rule:evenodd; clip-rule:evenodd"
viewBox="0 0 2014 2014"
 xmlns:xlink="http://www.w3.org/1999/xlink">
 <defs>
  <style type="text/css">
   <![CDATA[
    .str0 {stroke:#373435;stroke-width:13.8898}
    .str1 {stroke:#373435;stroke-width:41.6654}
    .fil1 {fill:none;fill-rule:nonzero}
    .fil0 {fill:#00B5E6;fill-rule:nonzero}
    .fil2 {fill:#373435;fill-rule:nonzero}
   ]]>
  </style>
 </defs>
 <g id="Layer_x0020_1">
  <metadata id="CorelCorpID_0Corel-Layer"/>
  <path class="fil0" d="M1063 214c-18,-1 -35,-2 -53,-2 -85,0 -167,14 -244,39 6,17 10,36 10,56 0,89 -72,162 -162,162 -51,0 -96,-23 -125,-60 -46,40 -87,86 -123,136l697 0 0 -330zm329 97l0 233 262 0c-69,-96 -158,-176 -262,-233zm310 309l-310 0 0 647c0,0 -16,160 160,160l127 0c77,-122 122,-267 122,-422 0,-139 -36,-270 -99,-384zm-639 647c0,0 0,-323 0,-485 0,-162 -162,-162 -162,-162l-108 0 0 647c0,162 162,162 162,162l0 107 -533 0c145,160 354,261 587,261 233,0 442,-101 587,-261l-45 0c0,0 -489,28 -489,-268zm-593 -485c0,-139 -120,-159 -153,-161 -63,114 -99,244 -99,384 0,155 45,300 122,422 130,-19 130,-159 130,-159 0,0 0,-323 0,-485z"/>
  <path class="fil1 str0" d="M1063 214c-18,-1 -35,-2 -53,-2 -85,0 -167,14 -244,39 6,17 10,36 10,56 0,89 -72,162 -162,162 -51,0 -96,-23 -125,-60 -46,40 -87,86 -123,136l697 0 0 -330zm329 97l0 233 262 0c-69,-96 -158,-176 -262,-233zm310 309l-310 0 0 647c0,0 -16,160 160,160l127 0c77,-122 122,-267 122,-422 0,-139 -36,-270 -99,-384zm-639 647c0,0 0,-323 0,-485 0,-162 -162,-162 -162,-162l-108 0 0 647c0,162 162,162 162,162l0 107 -533 0c145,160 354,261 587,261 233,0 442,-101 587,-261l-45 0c0,0 -489,28 -489,-268zm-593 -485c0,-139 -120,-159 -153,-161 -63,114 -99,244 -99,384 0,155 45,300 122,422 130,-19 130,-159 130,-159 0,0 0,-323 0,-485z"/>
  <path class="fil0" d="M1063 214c-18,-1 -35,-2 -53,-2 -85,0 -167,14 -244,39 6,17 10,36 10,56 0,89 -72,162 -162,162 -51,0 -96,-23 -125,-60 -46,40 -87,86 -123,136l697 0 0 -330zm329 97l0 233 262 0c-69,-96 -158,-176 -262,-233zm310 309l-310 0 0 647c0,0 -16,160 160,160l127 0c77,-122 122,-267 122,-422 0,-139 -36,-270 -99,-384zm-639 647c0,0 0,-323 0,-485 0,-162 -162,-162 -162,-162l-108 0 0 647c0,162 162,162 162,162l0 107 -533 0c145,160 354,261 587,261 233,0 442,-101 587,-261l-45 0c0,0 -489,28 -489,-268zm-593 -485c0,-139 -120,-159 -153,-161 -63,114 -99,244 -99,384 0,155 45,300 122,422 130,-19 130,-159 130,-159 0,0 0,-323 0,-485z"/>
  <path class="fil1 str1" d="M1063 214c-18,-1 -35,-2 -53,-2 -85,0 -167,14 -244,39 6,17 10,36 10,56 0,89 -72,162 -162,162 -51,0 -96,-23 -125,-60 -46,40 -87,86 -123,136l697 0 0 -330zm329 97l0 233 262 0c-69,-96 -158,-176 -262,-233zm310 309l-310 0 0 647c0,0 -16,160 160,160l127 0c77,-122 122,-267 122,-422 0,-139 -36,-270 -99,-384zm-639 647c0,0 0,-323 0,-485 0,-162 -162,-162 -162,-162l-108 0 0 647c0,162 162,162 162,162l0 107 -533 0c145,160 354,261 587,261 233,0 442,-101 587,-261l-45 0c0,0 -489,28 -489,-268zm-593 -485c0,-139 -120,-159 -153,-161 -63,114 -99,244 -99,384 0,155 45,300 122,422 130,-19 130,-159 130,-159 0,0 0,-323 0,-485z"/>
  <polygon class="fil2" points="82,1079 96,1077 99,1102 169,1094 171,1112 101,1120 104,1145 90,1147 "/>
  <polygon class="fil2" points="94,993 95,1037 113,1037 112,997 127,996 128,1036 150,1036 148,990 164,989 165,1053 80,1055 79,994 "/>
  <polygon class="fil2" points="79,963 81,945 116,948 83,913 85,890 117,927 170,895 168,917 129,941 137,950 166,952 164,969 "/>
  <polygon class="fil2" points="89,865 92,846 156,825 99,814 102,798 185,813 182,831 117,853 176,864 173,880 "/>
  <path class="fil2" d="M202 727c4,8 5,18 1,30 -4,12 -9,20 -18,24 -10,6 -23,7 -37,2 -15,-5 -25,-12 -30,-23 -4,-8 -5,-18 -1,-29 4,-12 9,-20 18,-24 10,-6 22,-7 37,-2 15,4 24,12 30,23zm-16 7c-4,-5 -10,-10 -19,-12 -9,-3 -17,-3 -23,-1 -6,2 -10,7 -12,14 -2,7 -1,13 2,18 4,5 10,10 19,12 9,3 17,3 23,0 6,-2 10,-7 12,-14 2,-7 1,-13 -3,-18z"/>
  <polygon class="fil2" points="142,667 149,651 213,678 230,639 244,645 220,700 "/>
  <path class="fil2" d="M276 569c3,9 1,19 -5,29 -6,11 -13,17 -22,20 -11,4 -24,2 -37,-6 -14,-8 -22,-17 -24,-28 -3,-9 -1,-19 5,-29 6,-11 13,-17 22,-20 11,-4 23,-2 37,6 13,7 22,17 24,28zm-17 3c-3,-6 -8,-11 -16,-16 -8,-5 -16,-6 -22,-5 -7,1 -11,5 -15,11 -3,6 -4,12 -1,18 3,6 8,12 16,16 8,5 16,6 22,5 7,-1 11,-5 15,-11 3,-6 4,-12 1,-18z"/>
  <path class="fil2" d="M284 465c-6,-2 -11,-2 -16,1 -3,2 -5,4 -7,7 -4,6 -5,12 -3,18 2,7 7,13 15,19 8,6 16,8 22,7 6,-1 11,-5 15,-9 3,-5 5,-10 4,-15 -1,-5 -3,-10 -7,-13l-11 16 -12 -8 20 -29 37 26 -7 10 -10 -5c1,5 2,9 2,12 0,5 -3,11 -6,17 -7,9 -15,14 -26,16 -11,2 -22,-2 -33,-9 -11,-8 -18,-17 -20,-28 -2,-11 0,-22 7,-32 6,-9 13,-14 22,-16 8,-2 16,-1 23,3l-10 14z"/>
  <path class="fil2" d="M346 439c3,2 6,3 9,3 5,0 9,-2 14,-8 3,-3 5,-6 6,-9 2,-5 1,-9 -2,-12 -2,-2 -5,-2 -7,-2 -3,1 -6,3 -11,6l-8 5c-7,5 -13,9 -17,10 -7,2 -13,0 -20,-6 -6,-5 -9,-11 -9,-19 0,-8 3,-15 11,-23 6,-7 13,-11 21,-13 8,-2 15,0 22,6l-11 13c-4,-3 -8,-4 -13,-2 -3,1 -6,3 -9,6 -3,4 -5,7 -5,10 0,3 1,6 3,8 2,2 5,2 8,1 2,-1 5,-3 10,-6l12 -9c5,-4 10,-6 14,-7 6,-1 12,1 18,6 6,5 9,12 9,19 0,8 -4,16 -11,24 -7,8 -15,13 -23,15 -8,1 -15,-1 -22,-7l11 -13z"/>
  <polygon class="fil2" points="411,311 379,341 391,354 420,327 430,337 401,365 416,381 450,350 460,361 413,404 356,341 401,300 "/>
  <polygon class="fil2" points="424,280 438,269 459,297 464,250 483,236 476,285 535,303 517,316 474,303 472,315 489,337 475,348 "/>
  <polygon class="fil2" points="557,190 565,203 543,216 579,276 564,285 527,225 506,239 498,226 "/>
  <polygon class="fil2" points="631,248 615,256 576,181 592,172 "/>
  <path class="fil2" d="M708 206c-3,9 -11,15 -22,20 -11,5 -21,5 -29,2 -11,-4 -20,-13 -25,-27 -6,-14 -6,-27 -2,-37 3,-9 11,-15 22,-20 11,-5 21,-5 29,-2 11,4 19,13 25,27 6,14 6,27 2,37zm-15 -8c2,-6 1,-14 -3,-23 -4,-9 -8,-15 -14,-18 -6,-3 -12,-3 -18,-1 -6,3 -11,7 -12,14 -2,6 -1,14 3,23 4,9 8,15 14,18 6,3 12,3 18,1 6,-3 11,-7 12,-14z"/>
  <polygon class="fil2" points="716,120 734,115 782,163 765,106 781,101 805,183 788,188 739,140 756,198 740,202 "/>
  <polygon class="fil2" points="875,98 832,106 835,124 874,117 877,131 838,138 842,160 887,152 890,166 827,178 812,94 872,83 "/>
  <polygon class="fil2" points="902,79 921,78 958,134 954,75 970,74 977,158 959,160 921,103 925,163 909,164 "/>
  <polygon class="fil2" points="1056,160 1038,159 1041,74 1059,75 "/>
  <polygon class="fil2" points="1088,76 1106,78 1132,141 1139,82 1155,84 1145,169 1128,166 1101,103 1094,162 1078,160 "/>
  <polygon class="fil2" points="1185,90 1244,103 1241,117 1200,108 1195,127 1232,135 1228,150 1192,142 1184,176 1167,173 "/>
  <path class="fil2" d="M1306 203c-8,4 -18,4 -30,1 -11,-4 -19,-10 -23,-18 -6,-10 -6,-23 -1,-37 5,-15 13,-24 23,-29 8,-4 18,-4 30,-1 12,4 19,10 23,18 6,10 6,23 1,37 -5,14 -13,24 -23,29zm-6 -16c6,-4 10,-10 13,-19 3,-9 3,-17 1,-23 -2,-6 -7,-10 -13,-13 -7,-2 -13,-2 -18,2 -6,4 -10,10 -13,19 -3,9 -3,17 -1,23 2,6 7,10 13,13 7,2 13,2 18,-2z"/>
  <path class="fil2" d="M1417 170c2,3 4,5 5,9 1,3 1,5 1,8 0,3 -1,6 -2,9 -2,4 -4,7 -8,10 -3,3 -8,4 -13,3 3,3 4,6 5,10 0,3 -1,8 -3,13l-2 5c-2,4 -3,6 -3,7 -1,2 0,4 1,6l-1 2 -18 -8c0,-2 1,-3 1,-5 1,-2 1,-5 2,-7l3 -7c2,-5 3,-9 2,-11 -1,-2 -4,-5 -8,-7l-16 -7 -14 30 -16 -7 36 -77 37 17c5,3 9,5 11,8zm-39 -4l-10 21 17 8c3,2 6,2 8,2 4,0 7,-2 9,-7 2,-5 2,-8 0,-11 -1,-2 -4,-3 -7,-5l-18 -8z"/>
  <path class="fil2" d="M1507 217l22 13 -44 73 -14 -9 30 -49c1,-1 2,-3 4,-6 2,-3 3,-4 4,-6l-51 53 -15 -9 23 -69c-1,1 -2,3 -4,6 -2,3 -3,5 -4,6l-30 49 -14 -9 44 -73 22 13 -22 65 48 -49z"/>
  <path class="fil2" d="M1573 263l16 12 -28 86 -15 -12 6 -17 -25 -19 -15 10 -15 -11 76 -49zm-33 41l17 13 12 -33 -29 20z"/>
  <polygon class="fil2" points="1670,347 1660,358 1641,340 1593,392 1580,379 1628,328 1609,311 1619,300 "/>
  <polygon class="fil2" points="1634,433 1622,420 1684,362 1696,375 "/>
  <path class="fil2" d="M1697 497c-9,-1 -18,-6 -25,-16 -8,-10 -11,-19 -9,-28 1,-12 7,-22 19,-32 12,-10 24,-14 35,-12 9,1 18,6 25,16 8,10 11,19 10,28 -1,12 -7,22 -19,32 -12,9 -24,13 -35,12zm3 -17c7,0 14,-3 21,-9 7,-6 12,-12 13,-18 2,-6 0,-12 -4,-18 -4,-5 -10,-8 -16,-8 -7,0 -14,3 -21,9 -7,6 -12,12 -13,19 -1,6 0,12 4,18 4,5 10,8 16,8z"/>
  <polygon class="fil2" points="1781,482 1791,497 1758,557 1808,526 1817,540 1745,585 1736,570 1768,509 1718,541 1709,527 "/>
  <path class="fil2" d="M1785 604c-3,2 -5,4 -6,7 -2,4 -1,9 2,16 2,4 4,7 6,9 4,4 8,5 12,2 3,-1 4,-3 4,-6 0,-3 0,-7 -2,-12l-2 -9c-2,-9 -3,-15 -2,-19 1,-7 5,-12 13,-16 7,-3 14,-4 21,-1 7,3 13,9 18,19 4,8 5,16 4,24 -1,8 -6,14 -14,18l-8 -15c4,-3 7,-6 7,-11 0,-3 -1,-7 -3,-10 -2,-4 -5,-7 -7,-9 -3,-2 -6,-2 -9,0 -3,1 -4,4 -4,7 0,2 0,6 2,12l3 15c1,7 2,12 1,16 -1,6 -5,11 -12,14 -7,3 -14,4 -21,0 -7,-3 -13,-10 -18,-19 -5,-10 -6,-19 -5,-27 2,-8 7,-14 15,-18l8 15z"/>
  <polygon class="fil2" points="1893,708 1879,713 1870,689 1804,714 1798,697 1864,672 1854,648 1868,643 "/>
  <polygon class="fil2" points="1901,793 1890,751 1872,756 1883,795 1869,799 1858,760 1837,766 1849,810 1834,814 1818,753 1900,730 1916,789 "/>
  <polygon class="fil2" points="1923,820 1925,837 1891,842 1931,869 1935,892 1894,863 1851,907 1847,885 1880,853 1870,846 1841,851 1839,833 "/>
  <polygon class="fil2" points="1937,917 1938,936 1881,972 1940,969 1941,985 1856,990 1855,972 1913,935 1853,939 1852,922 "/>
  <polygon class="fil2" points="1855,1029 1855,1011 1941,1013 1940,1030 "/>
  <polygon class="fil2" points="1939,1059 1938,1077 1903,1073 1935,1109 1933,1132 1901,1094 1848,1126 1850,1103 1889,1081 1882,1071 1853,1069 1855,1051 "/>
  <path class="fil1 str1" d="M1999 1004c0,546 -443,989 -989,989 -546,0 -989,-443 -989,-989 0,-546 443,-989 989,-989 546,0 989,443 989,989z"/>
  <path class="fil2" d="M161 1235c-2,3 -4,5 -8,6 -4,1 -7,1 -10,-1 -3,-2 -5,-4 -6,-8 -1,-4 -1,-7 1,-10 2,-3 4,-5 8,-6 4,-1 7,-1 10,1 3,2 5,4 6,8 1,4 1,7 -1,10z"/>
  <path class="fil2" d="M207 1299c9,4 15,11 19,20 5,13 5,24 -2,34 -4,5 -8,9 -13,11l-7 -17c3,-3 6,-5 7,-7 2,-4 2,-9 0,-15 -2,-6 -7,-9 -13,-11 -6,-1 -14,0 -23,3 -9,4 -15,8 -18,13 -3,5 -3,11 -1,16 2,6 6,9 11,11 3,1 6,1 11,0l7 17c-9,2 -18,1 -25,-2 -8,-4 -13,-10 -17,-19 -4,-11 -4,-21 0,-31 5,-9 13,-17 26,-22 14,-5 26,-6 36,-2z"/>
  <polygon class="fil2" points="171,1410 246,1370 254,1386 226,1401 241,1430 270,1414 278,1430 203,1470 194,1454 228,1436 213,1408 179,1425 "/>
  <path class="fil2" d="M302 1468l11 17 -54 72 -11 -16 11 -14 -17 -26 -18 5 -10 -16 88 -22zm-45 29l12 18 22 -28 -34 9z"/>
  <polygon class="fil2" points="340,1522 351,1535 297,1580 324,1612 312,1622 274,1576 "/>
  <path class="fil2" d="M428 1620l18 18 -60 61 -12 -12 40 -41c1,-1 3,-3 5,-5 2,-2 4,-4 5,-5l-62 40 -12 -12 39 -62c-1,1 -3,3 -5,5 -2,2 -4,4 -5,5l-40 41 -12 -12 60 -61 18 18 -36 59 58 -37z"/>
  <polygon class="fil2" points="501,1701 467,1673 456,1688 487,1712 478,1724 446,1699 433,1716 469,1745 460,1757 410,1717 463,1651 511,1689 "/>
  <path class="fil2" d="M572 1732c2,3 3,6 4,9 0,3 0,6 0,8 -1,3 -2,6 -3,8 -2,3 -5,6 -9,8 -4,2 -8,3 -13,2 2,3 4,7 3,10 0,3 -2,8 -5,13l-3 5c-2,3 -3,6 -4,7 -1,2 -1,4 0,6l-1 2 -16 -10c1,-2 1,-3 2,-4 1,-2 2,-4 3,-7l4 -7c3,-5 4,-8 3,-11 -1,-3 -3,-5 -7,-8l-15 -9 -18 28 -15 -9 46 -72 34 22c5,3 8,6 10,9zm-38 -9l-12 19 16 10c3,2 6,3 8,3 4,0 7,-1 9,-5 3,-4 3,-8 1,-11 -1,-2 -3,-4 -6,-6l-17 -11z"/>
  <path class="fil2" d="M588 1806c-1,4 -2,7 -1,9 1,4 5,8 11,11 4,2 7,3 10,3 5,1 9,-1 11,-5 1,-2 1,-5 0,-7 -2,-2 -4,-5 -9,-9l-7 -6c-7,-6 -12,-11 -14,-14 -3,-6 -3,-13 0,-20 3,-7 9,-11 16,-13 7,-2 16,0 25,4 8,4 14,10 17,17 4,7 3,15 0,23l-15 -8c2,-5 2,-9 -1,-13 -2,-3 -5,-5 -8,-7 -4,-2 -8,-3 -11,-3 -3,0 -6,2 -7,5 -1,3 -1,5 1,8 1,2 4,4 8,8l12 10c5,4 9,8 10,12 3,6 2,12 -1,19 -4,7 -9,11 -17,13 -8,2 -16,0 -26,-5 -10,-5 -17,-11 -20,-19 -3,-7 -3,-15 1,-23l15 8z"/>
  <polygon class="fil2" points="772,1819 767,1833 743,1825 720,1891 704,1885 726,1819 702,1810 707,1796 "/>
  <polygon class="fil2" points="842,1852 800,1842 796,1859 835,1869 831,1883 792,1873 787,1895 832,1906 828,1920 767,1905 787,1823 846,1837 "/>
  <polygon class="fil2" points="867,1841 884,1843 879,1878 917,1848 939,1851 900,1881 930,1935 907,1932 886,1892 877,1900 873,1928 856,1925 "/>
  <polygon class="fil2" points="955,1852 973,1852 1005,1912 1006,1853 1023,1854 1020,1939 1003,1938 971,1877 969,1937 952,1937 "/>
  <polygon class="fil2" points="1065,1937 1047,1938 1043,1853 1061,1852 "/>
  <path class="fil2" d="M1102 1908c1,4 2,7 4,8 3,3 8,4 15,3 4,0 8,-1 10,-3 5,-2 7,-6 6,-11 0,-3 -2,-5 -4,-6 -3,-1 -7,-2 -12,-3l-9 -1c-9,-1 -15,-2 -19,-4 -6,-3 -10,-9 -11,-17 -1,-8 1,-14 6,-20 5,-6 13,-9 24,-10 9,-1 17,0 24,4 7,4 11,10 12,19l-17 2c-1,-5 -4,-8 -8,-10 -3,-1 -7,-1 -11,-1 -5,1 -8,2 -11,4 -3,2 -4,5 -3,8 0,3 2,5 5,6 2,1 6,2 12,2l15 2c7,1 12,2 15,4 5,3 9,9 10,16 1,8 -1,14 -7,20 -5,6 -13,9 -24,11 -11,1 -20,0 -27,-4 -7,-4 -11,-11 -12,-20l17 -2z"/>
  <polygon class="fil2" points="1165,1840 1182,1837 1189,1871 1214,1830 1236,1825 1210,1866 1256,1907 1234,1912 1201,1882 1194,1892 1200,1920 1183,1923 "/>
  <path class="fil2" d="M1274 1813l19 -6 55 71 -18 6 -11 -15 -30 10 0 18 -18 6 2 -90zm16 51l21 -7 -21 -28 0 35z"/>
  <polygon class="fil2" points="1405,1854 1367,1777 1383,1769 1397,1798 1427,1784 1412,1755 1428,1747 1466,1823 1450,1831 1433,1797 1404,1812 1421,1846 "/>
  <path class="fil2" d="M1449 1706l13 -8 7 11 -13 8 -7 -11zm95 60c-2,9 -8,17 -18,23 -10,7 -20,9 -29,7 -12,-2 -22,-10 -30,-22 -8,-13 -11,-25 -8,-36 2,-9 8,-17 18,-23 10,-7 20,-9 29,-7 11,2 21,9 30,22 8,13 11,25 8,36zm-75 -72l13 -8 7 11 -13 8 -7 -11zm59 67c1,-7 -2,-14 -7,-22 -5,-8 -11,-13 -17,-15 -6,-2 -12,-1 -18,3 -6,4 -9,9 -10,16 -1,7 2,14 7,22 5,8 11,13 17,15 6,2 12,1 18,-3 6,-4 9,-9 10,-16z"/>
  <path class="fil2" d="M1587 1668c-5,-4 -10,-5 -15,-3 -3,1 -6,2 -9,5 -5,4 -8,10 -8,17 0,7 3,14 10,22 7,8 13,12 20,13 6,0 12,-1 17,-5 5,-4 7,-8 8,-13 1,-5 0,-10 -3,-15l-15 13 -9 -11 27 -22 29 35 -9 7 -8 -7c0,5 -1,9 -2,12 -2,5 -5,10 -11,14 -9,7 -18,10 -29,9 -11,-1 -20,-7 -29,-18 -9,-11 -13,-22 -12,-33 1,-11 6,-21 15,-29 8,-7 17,-10 25,-10 9,0 16,3 22,9l-13 11z"/>
  <path class="fil2" d="M1650 1654c3,2 6,4 8,4 5,0 9,-2 14,-7 3,-3 5,-6 6,-8 2,-5 2,-9 -2,-12 -2,-2 -4,-3 -7,-2 -3,1 -6,3 -11,6l-8 5c-8,5 -14,8 -18,9 -7,1 -13,-1 -19,-7 -5,-5 -8,-12 -8,-19 0,-7 4,-15 12,-23 6,-6 13,-10 21,-11 8,-1 15,1 22,7l-12 12c-4,-3 -8,-4 -13,-3 -3,1 -6,3 -9,6 -3,3 -5,7 -6,10 -1,3 0,6 3,8 2,2 5,3 8,2 2,-1 5,-2 10,-6l13 -8c6,-4 11,-6 15,-6 6,-1 12,1 18,7 6,5 8,12 7,20 -1,8 -5,16 -12,23 -8,8 -16,12 -24,13 -8,1 -15,-2 -22,-8l12 -12z"/>
  <polygon class="fil2" points="1656,1562 1667,1549 1694,1571 1688,1523 1702,1505 1707,1554 1770,1557 1755,1575 1710,1572 1711,1584 1733,1602 1723,1616 "/>
  <path class="fil2" d="M1811 1479c2,9 0,19 -7,29 -7,10 -14,16 -23,18 -11,3 -24,0 -36,-8 -13,-8 -21,-18 -23,-30 -2,-9 0,-19 7,-29 7,-10 14,-16 23,-18 11,-3 23,0 36,8 13,8 20,18 23,30zm-17 2c-2,-6 -7,-12 -15,-17 -8,-5 -15,-7 -22,-7 -7,1 -12,4 -16,10 -4,6 -5,12 -3,18 2,6 7,12 15,17 8,5 15,7 22,7 7,-1 12,-4 16,-10 4,-6 5,-12 2,-18z"/>
  <polygon class="fil2" points="1762,1410 1770,1395 1832,1426 1851,1389 1865,1395 1838,1449 "/>
  <path class="fil2" d="M1804 1320l7 -19 90 3 -7 18 -18 -1 -11 29 14 12 -7 17 -68 -59zm49 20l8 -20 -35 -2 27 22z"/>
  <path class="fil2" d="M1874 1213c3,-2 6,-2 10,-1 4,1 6,3 8,6 2,3 2,6 1,10 -1,4 -3,6 -6,8 -3,2 -6,2 -10,1 -4,-1 -6,-3 -8,-6 -2,-3 -2,-6 -1,-10 1,-4 3,-6 6,-8z"/>
 </g>
</svg>
